<svg width="19" height="19" viewBox="0 0 19 19" fill="none" xmlns="http://www.w3.org/2000/svg">
<g clip-path="url(#clip0_2_553)">
<rect width="18" height="17.3571" transform="translate(0.355469 0.90625)" fill="white"/>
<g clip-path="url(#clip1_2_553)">
<rect width="18" height="17.3571" transform="translate(0.355469 0.90625)" fill="white"/>
<g clip-path="url(#clip2_2_553)">
<path d="M1.09192 9.74407C1.09192 9.74407 4.03786 3.85219 9.19326 3.85219C14.3487 3.85219 17.2946 9.74407 17.2946 9.74407C17.2946 9.74407 14.3487 15.636 9.19326 15.636C4.03786 15.636 1.09192 9.74407 1.09192 9.74407Z" stroke="#55B76E" stroke-width="1.47297" stroke-linecap="round" stroke-linejoin="round"/>
<path d="M9.19334 11.9535C10.4136 11.9535 11.4028 10.9643 11.4028 9.74408C11.4028 8.52383 10.4136 7.53462 9.19334 7.53462C7.97309 7.53462 6.98389 8.52383 6.98389 9.74408C6.98389 10.9643 7.97309 11.9535 9.19334 11.9535Z" stroke="#55B76E" stroke-width="1.47297" stroke-linecap="round" stroke-linejoin="round"/>
</g>
</g>
</g>
<defs>
<clipPath id="clip0_2_553">
<rect width="18" height="17.3571" fill="white" transform="translate(0.355469 0.90625)"/>
</clipPath>
<clipPath id="clip1_2_553">
<rect width="18" height="17.3571" fill="white" transform="translate(0.355469 0.90625)"/>
</clipPath>
<clipPath id="clip2_2_553">
<rect width="17.6756" height="17.6756" fill="white" transform="translate(0.355469 0.90625)"/>
</clipPath>
</defs>
</svg>
