<svg width="11" height="10" viewBox="0 0 11 10" fill="none" xmlns="http://www.w3.org/2000/svg">
<path d="M10.1157 4.49999H6.11574V0.499968C6.11574 0.224029 5.89171 0 5.61568 0C5.33974 0 5.11571 0.224029 5.11571 0.499968V4.49999H1.11569C0.839752 4.49999 0.615723 4.72402 0.615723 4.99995C0.615723 5.27599 0.839752 5.50001 1.11569 5.50001H5.11571V9.49994C5.11571 9.77597 5.33974 10 5.61568 10C5.89171 10 6.11574 9.77597 6.11574 9.49994V5.50001H10.1157C10.3917 5.50001 10.6157 5.27599 10.6157 4.99995C10.6157 4.72402 10.3917 4.49999 10.1157 4.49999Z" fill="white"/>
</svg>
